<svg xmlns:rdf="http://www.w3.org/1999/02/22-rdf-syntax-ns#" xmlns="http://www.w3.org/2000/svg" height="128" width="128" version="1.1" xmlns:cc="http://creativecommons.org/ns#" xmlns:dc="http://purl.org/dc/elements/1.1/" viewBox="0 0 128.00001 128">
 <g transform="translate(-912 -954.61)">
  <path opacity="0.92" d="m1036.7 1018.6c0 33.505-27.159 60.666-60.662 60.666s-60.662-27.161-60.662-60.666c-0.00001-33.505 27.159-60.666 60.662-60.666 33.503-0.00001 60.662 27.161 60.662 60.666zm-80.884 0v-57.195m0.00005 57.195c-0.00001 7.6458-4.3127 14.638-11.145 18.069-6.8326 3.4315-15.016 2.7155-21.149-1.8503-6.1329-4.5658-9.166-12.2-7.8383-19.73m80.577 3.5112v57.195m-0.00009-57.195c-0.00002-7.6459 4.3127-14.638 11.145-18.069 6.8326-3.4314 15.016-2.7154 21.149 1.8504 6.1329 4.5658 9.166 12.2 7.8383 19.73m-40.133-3.5112c0.00001 11.167-9.0528 20.22-20.22 20.22s-20.22-9.0528-20.22-20.22 9.0528-20.22 20.22-20.22 20.22 9.0528 20.22 20.22z" stroke-opacity=".80503" stroke="#000" stroke-linecap="round" stroke-width="7" fill="#aade87"/>
 </g>
</svg>
